{
    "asset" : {
        "generator" : "Khronos glTF Blender I/O v1.4.40",
        "version" : "2.0"
    },
    "scene" : 0,
    "scenes" : [
        {
            "name" : "Scene",
            "nodes" : [
                0,
                1,
                2
            ]
        }
    ],
    "nodes" : [
        {
            "mesh" : 0,
            "name" : "TexturedMesh",
            "rotation" : [
                -0.9536258578300476,
                0.018026985228061676,
                0.058326274156570435,
                0.2947385609149933
            ],
            "translation" : [
                -0.017784344032406807,
                0.3039754033088684,
                0.0249427929520607
            ]
        },
        {
            "name" : "Light",
            "rotation" : [
                0.16907575726509094,
                0.7558803558349609,
                -0.27217137813568115,
                0.570947527885437
            ],
            "translation" : [
                -1.8986353874206543,
                1.1489431858062744,
                2.0869412422180176
            ]
        },
        {
            "name" : "Camera",
            "rotation" : [
                0.483536034822464,
                0.33687159419059753,
                -0.20870360732078552,
                0.7804827094078064
            ],
            "translation" : [
                7.358891487121582,
                4.958309173583984,
                6.925790786743164
            ]
        }
    ],
    "materials" : [
        {
            "name" : "Material.001",
            "pbrMetallicRoughness" : {
                "baseColorFactor" : [
                    0.64000004529953,
                    0.64000004529953,
                    0.64000004529953,
                    1
                ],
                "baseColorTexture" : {
                    "index" : 0,
                    "texCoord" : 0
                },
                "metallicFactor" : 0
            }
        }
    ],
    "meshes" : [
        {
            "name" : "TexturedMesh",
            "primitives" : [
                {
                    "attributes" : {
                        "POSITION" : 0,
                        "NORMAL" : 1,
                        "TEXCOORD_0" : 2
                    },
                    "indices" : 3,
                    "material" : 0
                }
            ]
        }
    ],
    "textures" : [
        {
            "sampler" : 0,
            "source" : 0
        }
    ],
    "images" : [
        {
            "bufferView" : 4,
            "mimeType" : "image/png",
            "name" : "Base"
        }
    ],
    "accessors" : [
        {
            "bufferView" : 0,
            "componentType" : 5126,
            "count" : 2390,
            "max" : [
                0.751107931137085,
                0.37620797753334045,
                0.08302507549524307
            ],
            "min" : [
                -0.5057061314582825,
                -0.08307988941669464,
                -0.21770919859409332
            ],
            "type" : "VEC3"
        },
        {
            "bufferView" : 1,
            "componentType" : 5126,
            "count" : 2390,
            "type" : "VEC3"
        },
        {
            "bufferView" : 2,
            "componentType" : 5126,
            "count" : 2390,
            "type" : "VEC2"
        },
        {
            "bufferView" : 3,
            "componentType" : 5123,
            "count" : 11514,
            "type" : "SCALAR"
        }
    ],
    "bufferViews" : [
        {
            "buffer" : 0,
            "byteLength" : 28680,
            "byteOffset" : 0
        },
        {
            "buffer" : 0,
            "byteLength" : 28680,
            "byteOffset" : 28680
        },
        {
            "buffer" : 0,
            "byteLength" : 19120,
            "byteOffset" : 57360
        },
        {
            "buffer" : 0,
            "byteLength" : 23028,
            "byteOffset" : 76480
        },
        {
            "buffer" : 0,
            "byteLength" : 2890050,
            "byteOffset" : 99508
        }
    ],
    "samplers" : [
        {
            "magFilter" : 9729,
            "minFilter" : 9986
        }
    ],
    "buffers" : [
        {
            "byteLength" : 2989560,
            "uri" : "data:application/octet-stream;base64,"
        }
    ]
}
