{
    "accessors" : [
        {
            "bufferView" : 0,
            "componentType" : 5123,
            "count" : 7224,
            "max" : [
                7223
            ],
            "min" : [
                0
            ],
            "type" : "SCALAR"
        },
        {
            "bufferView" : 1,
            "componentType" : 5126,
            "count" : 7224,
            "max" : [
                0.2222152054309845,
                0.16500811278820038,
                0.40875083208084106
            ],
            "min" : [
                -0.188233882188797,
                -0.08882740139961243,
                -0.3513033390045166
            ],
            "type" : "VEC3"
        },
        {
            "bufferView" : 2,
            "componentType" : 5126,
            "count" : 7224,
            "max" : [
                0.6220146417617798,
                0.999327540397644,
                0.9549106955528259
            ],
            "min" : [
                -0.9986730813980103,
                -0.9999962449073792,
                -0.9826199412345886
            ],
            "type" : "VEC3"
        },
        {
            "bufferView" : 3,
            "componentType" : 5126,
            "count" : 7224,
            "max" : [
                0.9821716547012329,
                0.9771403074264526,
                0.9405651092529297,
                1.0
            ],
            "min" : [
                -0.9997300505638123,
                -0.9906195402145386,
                -0.9521498680114746,
                1.0
            ],
            "type" : "VEC4"
        },
        {
            "bufferView" : 4,
            "componentType" : 5126,
            "count" : 7224,
            "max" : [
                1.0,
                1.0
            ],
            "min" : [
                0.0,
                0.0
            ],
            "type" : "VEC2"
        }
    ],
    "asset" : {
        "generator" : "Khronos Blender glTF 2.0 exporter",
        "version" : "2.0"
    },
    "bufferViews" : [
        {
            "buffer" : 0,
            "byteLength" : 14448,
            "byteOffset" : 0,
            "target" : 34963
        },
        {
            "buffer" : 0,
            "byteLength" : 86688,
            "byteOffset" : 14448,
            "target" : 34962
        },
        {
            "buffer" : 0,
            "byteLength" : 86688,
            "byteOffset" : 101136,
            "target" : 34962
        },
        {
            "buffer" : 0,
            "byteLength" : 115584,
            "byteOffset" : 187824,
            "target" : 34962
        },
        {
            "buffer" : 0,
            "byteLength" : 57792,
            "byteOffset" : 303408,
            "target" : 34962
        }
    ],
    "buffers" : [
        {
            "byteLength" : 361200,
            "uri" : "PuntaFlecha1.bin"
        }
    ],
    "images" : [
        {
            "name" : "Base",
            "uri" : "Base.png"
        }
    ],
    "materials" : [
        {
            "alphaMode" : "BLEND",
            "name" : "Material",
            "pbrMetallicRoughness" : {
                "baseColorFactor" : [
                    0.6400000190734865,
                    0.6400000190734865,
                    0.6400000190734865,
                    1.0
                ],
                "baseColorTexture" : {
                    "index" : 0
                },
                "metallicFactor" : 0.0
            }
        }
    ],
    "meshes" : [
        {
            "name" : "TexturedMesh.001",
            "primitives" : [
                {
                    "attributes" : {
                        "NORMAL" : 2,
                        "POSITION" : 1,
                        "TANGENT" : 3,
                        "TEXCOORD_0" : 4
                    },
                    "indices" : 0,
                    "material" : 0
                }
            ]
        }
    ],
    "nodes" : [
        {
            "name" : "Camera",
            "rotation" : [
                0.19199569523334503,
                -0.014133130200207233,
                0.018410002812743187,
                0.981121301651001
            ],
            "scale" : [
                0.9999999403953552,
                0.9999999403953552,
                1.0
            ],
            "translation" : [
                -0.03487682342529297,
                1.6720755100250244,
                0.6887103319168091
            ]
        },
        {
            "name" : "Lamp",
            "rotation" : [
                0.16907575726509094,
                0.7558802962303162,
                -0.27217137813568115,
                0.570947527885437
            ],
            "scale" : [
                1.0,
                1.0,
                0.9999999403953552
            ],
            "translation" : [
                1.0,
                1.0,
                -1.0
            ]
        },
        {
            "name" : "Lamp.001",
            "rotation" : [
                0.16907575726509094,
                0.7558802962303162,
                -0.27217137813568115,
                0.570947527885437
            ],
            "scale" : [
                1.0,
                1.0,
                0.9999999403953552
            ],
            "translation" : [
                1.0,
                1.0,
                1.0
            ]
        },
        {
            "name" : "Lamp.002",
            "rotation" : [
                0.16907575726509094,
                0.7558802962303162,
                -0.27217137813568115,
                0.570947527885437
            ],
            "scale" : [
                1.0,
                1.0,
                0.9999999403953552
            ],
            "translation" : [
                -1.0,
                1.0,
                1.0
            ]
        },
        {
            "name" : "Lamp.003",
            "rotation" : [
                0.16907575726509094,
                0.7558802962303162,
                -0.27217137813568115,
                0.570947527885437
            ],
            "scale" : [
                1.0,
                1.0,
                0.9999999403953552
            ],
            "translation" : [
                -1.0,
                1.0,
                -1.0
            ]
        },
        {
            "name" : "Lamp.004",
            "rotation" : [
                0.16907575726509094,
                0.7558802962303162,
                -0.27217137813568115,
                0.570947527885437
            ],
            "scale" : [
                1.0,
                1.0,
                0.9999999403953552
            ],
            "translation" : [
                -1.0,
                -1.0,
                -1.0
            ]
        },
        {
            "name" : "Lamp.005",
            "rotation" : [
                0.16907575726509094,
                0.7558802962303162,
                -0.27217137813568115,
                0.570947527885437
            ],
            "scale" : [
                1.0,
                1.0,
                0.9999999403953552
            ],
            "translation" : [
                -1.0,
                -1.0,
                1.0
            ]
        },
        {
            "name" : "Lamp.006",
            "rotation" : [
                0.16907575726509094,
                0.7558802962303162,
                -0.27217137813568115,
                0.570947527885437
            ],
            "scale" : [
                1.0,
                1.0,
                0.9999999403953552
            ],
            "translation" : [
                1.0,
                -1.0,
                1.0
            ]
        },
        {
            "name" : "Lamp.007",
            "rotation" : [
                0.16907575726509094,
                0.7558802962303162,
                -0.27217137813568115,
                0.570947527885437
            ],
            "scale" : [
                1.0,
                1.0,
                0.9999999403953552
            ],
            "translation" : [
                1.0,
                -1.0,
                -1.0
            ]
        },
        {
            "mesh" : 0,
            "name" : "TexturedMesh.001",
            "rotation" : [
                -0.9880214929580688,
                3.2193827337323455e-07,
                -5.028277172414164e-08,
                0.15431661903858185
            ]
        }
    ],
    "samplers" : [
        {}
    ],
    "scene" : 0,
    "scenes" : [
        {
            "name" : "Scene",
            "nodes" : [
                8,
                7,
                6,
                5,
                4,
                3,
                2,
                9,
                1,
                0
            ]
        }
    ],
    "textures" : [
        {
            "sampler" : 0,
            "source" : 0
        }
    ]
}
