{
    "accessors" : [
        {
            "bufferView" : 0,
            "componentType" : 5123,
            "count" : 75432,
            "max" : [
                13877
            ],
            "min" : [
                0
            ],
            "type" : "SCALAR"
        },
        {
            "bufferView" : 1,
            "componentType" : 5126,
            "count" : 13878,
            "max" : [
                0.1438370645046234,
                0.2172962725162506,
                0.1788279265165329
            ],
            "min" : [
                -0.14792600274085999,
                -0.12830320000648499,
                -0.2785341143608093
            ],
            "type" : "VEC3"
        },
        {
            "bufferView" : 2,
            "componentType" : 5126,
            "count" : 13878,
            "max" : [
                0.999755859375,
                0.99957275390625,
                0.999481201171875
            ],
            "min" : [
                -0.99951171875,
                -0.999664306640625,
                -0.99969482421875
            ],
            "type" : "VEC3"
        },
        {
            "bufferView" : 3,
            "componentType" : 5126,
            "count" : 13878,
            "max" : [
                0.9998494982719421,
                0.9958011507987976,
                0.9917654395103455,
                1.0
            ],
            "min" : [
                -0.9805334210395813,
                -0.9525635838508606,
                -0.9884822368621826,
                1.0
            ],
            "type" : "VEC4"
        },
        {
            "bufferView" : 4,
            "componentType" : 5126,
            "count" : 13878,
            "max" : [
                1.0,
                1.0
            ],
            "min" : [
                0.0,
                0.0
            ],
            "type" : "VEC2"
        }
    ],
    "asset" : {
        "generator" : "Khronos Blender glTF 2.0 exporter",
        "version" : "2.0"
    },
    "bufferViews" : [
        {
            "buffer" : 0,
            "byteLength" : 150864,
            "byteOffset" : 0,
            "target" : 34963
        },
        {
            "buffer" : 0,
            "byteLength" : 166536,
            "byteOffset" : 150864,
            "target" : 34962
        },
        {
            "buffer" : 0,
            "byteLength" : 166536,
            "byteOffset" : 317400,
            "target" : 34962
        },
        {
            "buffer" : 0,
            "byteLength" : 222048,
            "byteOffset" : 483936,
            "target" : 34962
        },
        {
            "buffer" : 0,
            "byteLength" : 111024,
            "byteOffset" : 705984,
            "target" : 34962
        }
    ],
    "buffers" : [
        {
            "byteLength" : 817008,
            "uri" : "Pipa2_2.bin"
        }
    ],
    "images" : [
        {
            "name" : "base",
            "uri" : "base.png"
        }
    ],
    "materials" : [
        {
            "name" : "Material",
            "pbrMetallicRoughness" : {
                "baseColorFactor" : [
                    0.6400000190734865,
                    0.6400000190734865,
                    0.6400000190734865,
                    1.0
                ],
                "baseColorTexture" : {
                    "index" : 0
                },
                "metallicFactor" : 0.0
            }
        }
    ],
    "meshes" : [
        {
            "name" : "TexturedMesh.001",
            "primitives" : [
                {
                    "attributes" : {
                        "NORMAL" : 2,
                        "POSITION" : 1,
                        "TANGENT" : 3,
                        "TEXCOORD_0" : 4
                    },
                    "indices" : 0,
                    "material" : 0
                }
            ]
        }
    ],
    "nodes" : [
        {
            "name" : "Camera",
            "rotation" : [
                0.5265992283821106,
                0.012243034318089485,
                -0.007584983482956886,
                0.8499916791915894
            ],
            "translation" : [
                0.002316698431968689,
                0.3567945957183838,
                0.6819044947624207
            ]
        },
        {
            "name" : "Lamp",
            "rotation" : [
                0.16907575726509094,
                0.7558802962303162,
                -0.27217137813568115,
                0.570947527885437
            ],
            "scale" : [
                1.0,
                1.0,
                0.9999999403953552
            ],
            "translation" : [
                1.0762453079223633,
                0.9038619995117188,
                -1.0054539442062378
            ]
        },
        {
            "name" : "Lamp.001",
            "rotation" : [
                0.16907575726509094,
                0.7558802962303162,
                -0.27217137813568115,
                0.570947527885437
            ],
            "scale" : [
                1.0,
                1.0,
                0.9999999403953552
            ],
            "translation" : [
                1.0762453079223633,
                0.9038619995117188,
                0.9945460557937622
            ]
        },
        {
            "name" : "Lamp.002",
            "rotation" : [
                0.16907575726509094,
                0.7558802962303162,
                -0.27217137813568115,
                0.570947527885437
            ],
            "scale" : [
                1.0,
                1.0,
                0.9999999403953552
            ],
            "translation" : [
                -0.9237546920776367,
                0.9038619995117188,
                0.9945460557937622
            ]
        },
        {
            "name" : "Lamp.003",
            "rotation" : [
                0.16907575726509094,
                0.7558802962303162,
                -0.27217137813568115,
                0.570947527885437
            ],
            "scale" : [
                1.0,
                1.0,
                0.9999999403953552
            ],
            "translation" : [
                -0.9237546920776367,
                0.9038619995117188,
                -1.0054539442062378
            ]
        },
        {
            "name" : "Lamp.004",
            "rotation" : [
                0.16907575726509094,
                0.7558802962303162,
                -0.27217137813568115,
                0.570947527885437
            ],
            "scale" : [
                1.0,
                1.0,
                0.9999999403953552
            ],
            "translation" : [
                -0.9237546920776367,
                -1.0961380004882812,
                -1.0054539442062378
            ]
        },
        {
            "name" : "Lamp.005",
            "rotation" : [
                0.16907575726509094,
                0.7558802962303162,
                -0.27217137813568115,
                0.570947527885437
            ],
            "scale" : [
                1.0,
                1.0,
                0.9999999403953552
            ],
            "translation" : [
                -0.9237546920776367,
                -1.0961380004882812,
                0.9945460557937622
            ]
        },
        {
            "name" : "Lamp.006",
            "rotation" : [
                0.16907575726509094,
                0.7558802962303162,
                -0.27217137813568115,
                0.570947527885437
            ],
            "scale" : [
                1.0,
                1.0,
                0.9999999403953552
            ],
            "translation" : [
                1.0762453079223633,
                -1.0961380004882812,
                0.9945460557937622
            ]
        },
        {
            "name" : "Lamp.007",
            "rotation" : [
                0.16907575726509094,
                0.7558802962303162,
                -0.27217137813568115,
                0.570947527885437
            ],
            "scale" : [
                1.0,
                1.0,
                0.9999999403953552
            ],
            "translation" : [
                1.0762453079223633,
                -1.0961380004882812,
                -1.0054539442062378
            ]
        },
        {
            "mesh" : 0,
            "name" : "TexturedMesh.001",
            "rotation" : [
                0.026114674285054207,
                -0.8087193369865417,
                0.26002344489097595,
                0.5269524455070496
            ],
            "scale" : [
                0.7200000882148743,
                0.7200000882148743,
                0.7200000286102295
            ],
            "translation" : [
                -0.019999999552965164,
                0.0,
                -0.0
            ]
        }
    ],
    "samplers" : [
        {}
    ],
    "scene" : 0,
    "scenes" : [
        {
            "name" : "Scene",
            "nodes" : [
                9,
                8,
                7,
                6,
                5,
                4,
                3,
                2,
                1,
                0
            ]
        }
    ],
    "textures" : [
        {
            "sampler" : 0,
            "source" : 0
        }
    ]
}
