{
    "accessors" : [
        {
            "bufferView" : 0,
            "componentType" : 5123,
            "count" : 7968,
            "max" : [
                7967
            ],
            "min" : [
                0
            ],
            "type" : "SCALAR"
        },
        {
            "bufferView" : 1,
            "componentType" : 5126,
            "count" : 7968,
            "max" : [
                0.289756178855896,
                0.1760106086730957,
                0.4926885664463043
            ],
            "min" : [
                -0.2109852433204651,
                -0.14240550994873047,
                -0.4296695291996002
            ],
            "type" : "VEC3"
        },
        {
            "bufferView" : 2,
            "componentType" : 5126,
            "count" : 7968,
            "max" : [
                0.986611008644104,
                0.9983240962028503,
                0.9712907671928406
            ],
            "min" : [
                -0.931321918964386,
                -0.9989780783653259,
                -0.9750133156776428
            ],
            "type" : "VEC3"
        },
        {
            "bufferView" : 3,
            "componentType" : 5126,
            "count" : 7968,
            "max" : [
                0.9384447336196899,
                0.9953006505966187,
                0.996037483215332,
                1.0
            ],
            "min" : [
                -0.9978532195091248,
                -0.9988362193107605,
                -0.9976015090942383,
                -1.0
            ],
            "type" : "VEC4"
        },
        {
            "bufferView" : 4,
            "componentType" : 5126,
            "count" : 7968,
            "max" : [
                1.0,
                1.0
            ],
            "min" : [
                0.0,
                0.0
            ],
            "type" : "VEC2"
        }
    ],
    "asset" : {
        "generator" : "Khronos Blender glTF 2.0 exporter",
        "version" : "2.0"
    },
    "bufferViews" : [
        {
            "buffer" : 0,
            "byteLength" : 15936,
            "byteOffset" : 0,
            "target" : 34963
        },
        {
            "buffer" : 0,
            "byteLength" : 95616,
            "byteOffset" : 15936,
            "target" : 34962
        },
        {
            "buffer" : 0,
            "byteLength" : 95616,
            "byteOffset" : 111552,
            "target" : 34962
        },
        {
            "buffer" : 0,
            "byteLength" : 127488,
            "byteOffset" : 207168,
            "target" : 34962
        },
        {
            "buffer" : 0,
            "byteLength" : 63744,
            "byteOffset" : 334656,
            "target" : 34962
        }
    ],
    "buffers" : [
        {
            "byteLength" : 398400,
            "uri" : "PuntaFlecha2.bin"
        }
    ],
    "images" : [
        {
            "name" : "Base",
            "uri" : "Base.png"
        }
    ],
    "materials" : [
        {
            "name" : "Material",
            "pbrMetallicRoughness" : {
                "baseColorFactor" : [
                    0.6400000190734865,
                    0.6400000190734865,
                    0.6400000190734865,
                    1.0
                ],
                "baseColorTexture" : {
                    "index" : 0
                },
                "metallicFactor" : 0.0
            }
        }
    ],
    "meshes" : [
        {
            "name" : "TexturedMesh",
            "primitives" : [
                {
                    "attributes" : {
                        "NORMAL" : 2,
                        "POSITION" : 1,
                        "TANGENT" : 3,
                        "TEXCOORD_0" : 4
                    },
                    "indices" : 0,
                    "material" : 0
                }
            ]
        }
    ],
    "nodes" : [
        {
            "name" : "Camera",
            "rotation" : [
                0.483536034822464,
                0.33687159419059753,
                -0.20870360732078552,
                0.7804827094078064
            ],
            "translation" : [
                1.6952354907989502,
                1.3513115644454956,
                1.7162559032440186
            ]
        },
        {
            "name" : "Lamp",
            "rotation" : [
                0.16907575726509094,
                0.7558802962303162,
                -0.27217137813568115,
                0.570947527885437
            ],
            "scale" : [
                1.0,
                1.0,
                0.9999999403953552
            ],
            "translation" : [
                1.0,
                1.0,
                -1.0
            ]
        },
        {
            "name" : "Lamp.001",
            "rotation" : [
                0.16907575726509094,
                0.7558802962303162,
                -0.27217137813568115,
                0.570947527885437
            ],
            "scale" : [
                1.0,
                1.0,
                0.9999999403953552
            ],
            "translation" : [
                1.0,
                1.0,
                1.0
            ]
        },
        {
            "name" : "Lamp.002",
            "rotation" : [
                0.16907575726509094,
                0.7558802962303162,
                -0.27217137813568115,
                0.570947527885437
            ],
            "scale" : [
                1.0,
                1.0,
                0.9999999403953552
            ],
            "translation" : [
                -1.0,
                1.0,
                1.0
            ]
        },
        {
            "name" : "Lamp.003",
            "rotation" : [
                0.16907575726509094,
                0.7558802962303162,
                -0.27217137813568115,
                0.570947527885437
            ],
            "scale" : [
                1.0,
                1.0,
                0.9999999403953552
            ],
            "translation" : [
                -1.0,
                1.0,
                -1.0
            ]
        },
        {
            "name" : "Lamp.004",
            "rotation" : [
                0.16907575726509094,
                0.7558802962303162,
                -0.27217137813568115,
                0.570947527885437
            ],
            "scale" : [
                1.0,
                1.0,
                0.9999999403953552
            ],
            "translation" : [
                -1.0,
                -1.0,
                -1.0
            ]
        },
        {
            "name" : "Lamp.005",
            "rotation" : [
                0.16907575726509094,
                0.7558802962303162,
                -0.27217137813568115,
                0.570947527885437
            ],
            "scale" : [
                1.0,
                1.0,
                0.9999999403953552
            ],
            "translation" : [
                -1.0,
                -1.0,
                1.0
            ]
        },
        {
            "name" : "Lamp.006",
            "rotation" : [
                0.16907575726509094,
                0.7558802962303162,
                -0.27217137813568115,
                0.570947527885437
            ],
            "scale" : [
                1.0,
                1.0,
                0.9999999403953552
            ],
            "translation" : [
                1.0,
                -1.0,
                1.0
            ]
        },
        {
            "name" : "Lamp.007",
            "rotation" : [
                0.16907575726509094,
                0.7558802962303162,
                -0.27217137813568115,
                0.570947527885437
            ],
            "scale" : [
                1.0,
                1.0,
                0.9999999403953552
            ],
            "translation" : [
                1.0,
                -1.0,
                -1.0
            ]
        },
        {
            "mesh" : 0,
            "name" : "TexturedMesh",
            "rotation" : [
                -0.974747359752655,
                -0.025210654363036156,
                -0.16141293942928314,
                0.15224339067935944
            ],
            "scale" : [
                1.0,
                1.0,
                0.9999999403953552
            ]
        }
    ],
    "samplers" : [
        {}
    ],
    "scene" : 0,
    "scenes" : [
        {
            "name" : "Scene",
            "nodes" : [
                8,
                7,
                6,
                5,
                4,
                3,
                2,
                9,
                1,
                0
            ]
        }
    ],
    "textures" : [
        {
            "sampler" : 0,
            "source" : 0
        }
    ]
}
